<svg width="512" height="512" viewBox="0 0 512 512" fill="none" xmlns="http://www.w3.org/2000/svg">
<path d="M422 436H137C112.186 436 92 415.814 92 391C92 366.186 112.186 346 137 346H182L154.959 376H137C128.724 376 122 382.724 122 391C122 399.276 128.724 406 137 406H422V436Z" fill="#D9871D"/>
<path d="M287 406H422V436H287V406Z" fill="#FCCE93"/>
<path d="M108.379 166.006L94.974 106H0V76H119.026L145.013 192.367L108.379 166.006Z" fill="#D9871D"/>
<path d="M351.409 171.142L346.927 166H108.406L154.959 376H418.616L471.482 171.42C461.214 173.986 400.464 227.499 351.409 171.142ZM426.878 224.11L418.638 256H348.294L352.108 210.238C374.107 223.645 401.144 228.977 426.878 224.11ZM255.795 256L250.794 196H323.205L318.204 256H255.795ZM315.705 286L310.704 346H263.294L258.293 286H315.705ZM220.705 196L225.706 256H159.09L145.789 196H220.705ZM165.74 286H228.205L233.206 346H179.042L165.74 286ZM340.795 346L345.796 286H410.888L395.384 346H340.795Z" fill="#D9871D"/>
<path d="M351.409 171.142L346.927 166H287V196H323.205L318.204 256H287V286H315.705L310.704 346H287V376H418.616L471.482 171.42C461.214 173.985 400.465 227.498 351.409 171.142ZM395.384 346H340.795L345.796 286H410.888L395.384 346ZM426.878 224.11L418.638 256H348.294L352.108 210.238C374.107 223.645 401.144 228.977 426.878 224.11Z" fill="#FCCE93"/>
<path d="M197 496C172.186 496 152 475.814 152 451C152 426.186 172.186 406 197 406C221.814 406 242 426.186 242 451C242 475.814 221.814 496 197 496Z" fill="#665151"/>
<path d="M347 496C322.186 496 302 475.814 302 451C302 426.186 322.186 406 347 406C371.814 406 392 426.186 392 451C392 475.814 371.814 496 347 496Z" fill="#4D3535"/>
<path d="M407 226C347.5 226 302 177.388 302 121C302 63.109 349.109 16 407 16C464.891 16 512 63.109 512 121C512 180.299 463.832 226 407 226Z" fill="#4D3535"/>
<path d="M197 466C205.284 466 212 459.284 212 451C212 442.716 205.284 436 197 436C188.716 436 182 442.716 182 451C182 459.284 188.716 466 197 466Z" fill="#FFF7E6"/>
<path d="M347 466C355.284 466 362 459.284 362 451C362 442.716 355.284 436 347 436C338.716 436 332 442.716 332 451C332 459.284 338.716 466 347 466Z" fill="#FFEACC"/>
<path d="M512 121C512 63.109 464.891 16 407 16V226C463.832 226 512 180.299 512 121Z" fill="#7E5555"/>
<path d="M452 106H422V76H392V106H362V136H392V166H422V136H452V106Z" fill="#FFF7E6"/>
<path d="M407 76V166H422V136H452V106H422V76H407Z" fill="#FFEACC"/>
</svg>
